<svg enable-background="new 0 0 117.7 38" viewBox="0 0 117.7 38" xmlns="http://www.w3.org/2000/svg"><path d="m23.8 19.3c0-1.7.9-3.3 2.4-4.2-.9-1.3-2.4-2.1-4-2.2-1.7-.2-3.3 1-4.2 1s-2.2-1-3.6-1c-1.9.1-3.6 1.1-4.5 2.7-1.9 3.3-.5 8.3 1.4 11 .9 1.3 2 2.8 3.4 2.8 1.4-.1 1.9-.9 3.6-.9s2.1.9 3.6.9 2.4-1.3 3.3-2.7c.7-.9 1.2-2 1.5-3.1-1.8-.6-2.9-2.4-2.9-4.3z"/><path d="m21 11.2c.8-1 1.2-2.2 1.1-3.5-1.2.1-2.4.7-3.2 1.7-.8.9-1.2 2.1-1.1 3.4 1.3 0 2.4-.6 3.2-1.6z"/><path d="m41.3 26.1h-4.7l-1.1 3.4h-2l4.5-12.4h2l4.5 12.4h-2zm-4.2-1.5h3.8l-1.9-5.5h-.1z"/><path d="m54.2 25c0 2.8-1.5 4.6-3.8 4.6-1.2.1-2.3-.6-2.8-1.6v4.5h-1.9v-12h1.8v1.5c.6-1 1.7-1.6 2.9-1.6 2.2-.1 3.8 1.8 3.8 4.6zm-2 0c0-1.8-.9-3-2.4-3-1.4 0-2.4 1.2-2.4 3s1 3 2.4 3c1.5 0 2.4-1.2 2.4-3z"/><path d="m64.1 25c0 2.8-1.5 4.6-3.8 4.6-1.2.1-2.3-.6-2.8-1.6v4.5h-1.9v-12h1.8v1.5c.6-1 1.7-1.6 2.9-1.6 2.3-.1 3.8 1.8 3.8 4.6zm-1.9 0c0-1.8-.9-3-2.4-3-1.4 0-2.4 1.2-2.4 3s1 3 2.4 3c1.5 0 2.4-1.2 2.4-3z"/><path d="m70.7 26c.1 1.2 1.3 2 3 2 1.6 0 2.7-.8 2.7-1.9 0-1-.7-1.5-2.3-1.9l-1.6-.4c-2.3-.6-3.3-1.6-3.3-3.3 0-2.1 1.9-3.6 4.5-3.6s4.4 1.5 4.5 3.6h-1.9c-.1-1.2-1.1-2-2.6-2s-2.5.8-2.5 1.9c0 .9.7 1.4 2.3 1.8l1.4.3c2.5.6 3.6 1.6 3.6 3.4 0 2.3-1.9 3.8-4.8 3.8-2.8 0-4.6-1.4-4.7-3.7z"/><path d="m82.3 18.3v2.1h1.7v1.5h-1.7v5c0 .8.3 1.1 1.1 1.1h.6v1.5c-.3.1-.7.1-1 .1-1.8 0-2.5-.7-2.5-2.4v-5.2h-1.3v-1.5h1.3v-2.1h1.8z"/><path d="m85.1 25c0-2.8 1.7-4.6 4.3-4.6s4.3 1.8 4.3 4.6c0 2.9-1.7 4.6-4.3 4.6-2.7 0-4.3-1.8-4.3-4.6zm6.7 0c0-2-.9-3.1-2.4-3.1s-2.4 1.1-2.4 3.1.9 3.1 2.4 3.1 2.4-1.2 2.4-3.1z"/><path d="m95.2 20.4h1.8v1.6c.2-1 1.2-1.7 2.2-1.6.2 0 .4 0 .6.1v1.7c-.3-.1-.5-.2-.8-.2-1 0-1.9.8-1.9 1.8v.3 5.4h-1.9z"/><path d="m108.4 26.8c-.2 1.6-1.9 2.8-3.9 2.8-2.6 0-4.3-1.8-4.3-4.6s1.6-4.7 4.2-4.7c2.5 0 4.1 1.7 4.1 4.5v.6h-6.4v.1c-.1 1.3.8 2.4 2.1 2.6h.3c.9.1 1.8-.4 2.1-1.3zm-6.3-2.7h4.5c.1-1.2-.9-2.2-2.1-2.3-.1 0-.1 0-.2 0-1.2 0-2.2 1-2.2 2.3z"/><path d="m36.8 7.7c1.5-.1 2.7 1 2.8 2.4v.5c0 1.9-1 3-2.8 3h-2.2v-6h2.2zm-1.2 5.2h1.1c1 .1 1.9-.7 2-1.8 0-.1 0-.3 0-.4.1-1-.6-2-1.6-2.1-.1 0-.2 0-.4 0h-1.1z"/><path d="m40.7 11.4c-.1-1.2.7-2.2 1.9-2.3s2.2.7 2.3 1.9v.4c.1 1.2-.7 2.2-1.9 2.3s-2.2-.7-2.3-1.9c0-.1 0-.2 0-.4zm3.3 0c0-1-.4-1.5-1.2-1.5s-1.2.6-1.2 1.5c0 1 .4 1.6 1.2 1.6s1.2-.6 1.2-1.6z"/><path d="m50.6 13.7h-.9l-.9-3.3h-.1l-.9 3.3h-.9l-1.2-4.5h.9l.8 3.4h.1l.9-3.4h.9l.9 3.4h.1l.8-3.4h.9z"/><path d="m52.9 9.2h.9v.7h.1c.2-.5.8-.8 1.3-.8.8-.1 1.5.5 1.6 1.4v.3 2.9h-.9v-2.7c0-.7-.3-1.1-1-1.1-.6 0-1.1.4-1.1 1v.2 2.6h-.9z"/><path d="m58.1 7.4h.9v6.3h-.9z"/><path d="m60.2 11.4c-.1-1.2.7-2.2 1.9-2.3s2.2.7 2.3 1.9v.4c.1 1.2-.7 2.2-1.9 2.3s-2.2-.7-2.3-1.9c0-.1 0-.2 0-.4zm3.3 0c0-1-.4-1.5-1.2-1.5s-1.2.6-1.2 1.5c0 1 .4 1.6 1.2 1.6s1.2-.6 1.2-1.6z"/><path d="m65.4 12.4c0-.8.6-1.3 1.7-1.3l1.2-.1v-.4c0-.5-.3-.7-.9-.7-.5 0-.8.2-.9.5h-.9c.1-.8.8-1.3 1.8-1.3 1.1 0 1.8.6 1.8 1.5v3.1h-.9v-.6h-.1c-.3.5-.8.7-1.4.7-.7.1-1.4-.5-1.5-1.2.1-.1.1-.1.1-.2zm2.9-.4v-.4l-1.1.1c-.6 0-.9.3-.9.6 0 .4.4.6.8.6.6.2 1.1-.2 1.2-.9 0 .1 0 .1 0 0z"/><path d="m70.3 11.4c0-1.4.7-2.3 1.9-2.3.6 0 1.1.3 1.4.8h.1v-2.5h.9v6.3h-.9v-.7h-.1c-.3.5-.8.8-1.4.8-1.1 0-1.9-.9-1.9-2.4zm1 0c0 1 .5 1.5 1.2 1.5s1.2-.6 1.2-1.5-.5-1.5-1.2-1.5c-.8 0-1.2.6-1.2 1.5z"/><path d="m78.2 11.4c-.1-1.2.7-2.2 1.9-2.3s2.2.7 2.3 1.9v.4c.1 1.2-.7 2.2-1.9 2.3s-2.2-.7-2.3-1.9c0-.1 0-.2 0-.4zm3.4 0c0-1-.4-1.5-1.2-1.5s-1.2.6-1.2 1.5c0 1 .4 1.6 1.2 1.6.7 0 1.2-.6 1.2-1.6z"/><path d="m83.7 9.2h.9v.7h.1c.2-.5.8-.8 1.3-.8.8-.1 1.5.5 1.6 1.4v.3 2.9h-.9v-2.7c0-.7-.3-1.1-1-1.1-.6 0-1.1.4-1.1 1v.2 2.6h-.9z"/><path d="m92.5 8.1v1.1h1v.8h-1v2.3c0 .5.2.7.6.7h.3v.7c-.2 0-.3 0-.5 0-1 0-1.4-.3-1.4-1.2v-2.5h-.7v-.8h.7v-1.1z"/><path d="m94.7 7.4h.9v2.5h.1c.2-.5.8-.9 1.4-.8.8 0 1.5.6 1.6 1.4v.3 2.9h-.9v-2.7c0-.7-.3-1.1-1-1.1-.6 0-1.1.4-1.1 1v.2 2.6h-.9z"/><path d="m103.8 12.5c-.2.8-1.1 1.4-2 1.3-1.1 0-2.1-.9-2.1-2 0-.1 0-.2 0-.3-.2-1.1.6-2.2 1.8-2.3h.3c1.3 0 2 .9 2 2.3v.3h-3.2c-.1.7.4 1.2 1.1 1.3h.1c.4.1.9-.2 1.1-.5zm-3.2-1.5h2.3c0-.6-.4-1.1-1-1.2h-.1c-.6.1-1.2.6-1.2 1.2z"/></svg>